<svg xmlns="http://www.w3.org/2000/svg" width="23.644" height="23.644" viewBox="0 0 23.644 23.644">
  <path id="Subtração_2" data-name="Subtração 2" d="M28.2,23.644H16.484a5.972,5.972,0,0,1-5.965-5.965V5.965A5.972,5.972,0,0,1,16.484,0H28.2a5.971,5.971,0,0,1,5.963,5.965V17.679A5.971,5.971,0,0,1,28.2,23.644ZM16.484,2.575a3.394,3.394,0,0,0-3.39,3.39V17.679a3.4,3.4,0,0,0,3.39,3.393H28.2a3.4,3.4,0,0,0,3.391-3.393V5.965A3.4,3.4,0,0,0,28.2,2.575ZM22.34,17.912a6.089,6.089,0,1,1,6.09-6.089A6.1,6.1,0,0,1,22.34,17.912Zm0-9.6a3.516,3.516,0,1,0,3.518,3.515A3.519,3.519,0,0,0,22.34,8.307Zm6.287-1.315a1.441,1.441,0,1,1,1.441-1.441A1.443,1.443,0,0,1,28.627,6.992Z" transform="translate(-10.518)" fill="#426da9"/>
</svg>
