<svg xmlns="http://www.w3.org/2000/svg" width="22.657" height="21.697" viewBox="0 0 22.657 21.697">
  <path id="Interseção_2" data-name="Interseção 2" d="M-572.612-434.5v-7.472c0-1.876-.67-3.158-2.353-3.158a2.541,2.541,0,0,0-2.38,1.7,3.148,3.148,0,0,0-.154,1.131v7.8h-4.644s.062-12.656,0-13.966h4.644v1.98c-.008.015-.022.031-.031.046h.031v-.046a4.612,4.612,0,0,1,4.185-2.308c3.056,0,5.344,2,5.344,6.285v8.009Zm-16.739,0v-13.966h4.641V-434.5Zm2.291-15.872a2.4,2.4,0,0,1-2.567-2.413A2.422,2.422,0,0,1-587-455.2a2.413,2.413,0,0,1,2.6,2.413,2.422,2.422,0,0,1-2.628,2.413Z" transform="translate(590.126 455.7)" fill="#426da9" stroke="rgba(0,0,0,0)" stroke-miterlimit="10" stroke-width="1"/>
</svg>
