<svg xmlns="http://www.w3.org/2000/svg" width="208.654" height="86.29" viewBox="0 0 208.654 86.29">
  <g id="Grupo_649" data-name="Grupo 649" transform="translate(-646.062 -871.709)">
    <g id="Grupo_627" data-name="Grupo 627" transform="translate(713.128 917.827)">
      <g id="Grupo_626" data-name="Grupo 626">
        <g id="Grupo_613" data-name="Grupo 613">
          <g id="Grupo_612" data-name="Grupo 612">
            <path id="Caminho_1488" data-name="Caminho 1488" d="M782.181,953.033a23.038,23.038,0,0,1,3.189.273v21.319a8,8,0,0,1-2.307.273,8.5,8.5,0,0,1-2.37-.273v-6.378c0-3.552.183-7.987.4-9.626H780.9c-.365,1.3-1.608,4.616-2.642,7.105l-1.973,4.647a5.74,5.74,0,0,1-1.731.213,4.432,4.432,0,0,1-1.609-.213c-.637-1.488-1.305-2.976-1.913-4.465a68.889,68.889,0,0,1-2.734-7.287h-.181a64.618,64.618,0,0,1,.516,9.14v6.864a7.2,7.2,0,0,1-2.156.273,7.454,7.454,0,0,1-2.157-.273V953.306a18.783,18.783,0,0,1,2.976-.273,14.56,14.56,0,0,1,2.886.273l2.4,5.588a42.524,42.524,0,0,1,2.094,5.862h.153a19.971,19.971,0,0,1,1.033-3.461c1.063-2.613,2.247-5.347,3.371-7.988A14.152,14.152,0,0,1,782.181,953.033Z" transform="translate(-764.324 -953.033)" fill="#0c5eaa"/>
          </g>
        </g>
        <g id="Grupo_615" data-name="Grupo 615" transform="translate(23.458)">
          <g id="Grupo_614" data-name="Grupo 614">
            <path id="Caminho_1489" data-name="Caminho 1489" d="M815.68,953.033a13.664,13.664,0,0,1,3.068.273l6.923,21.319a9.2,9.2,0,0,1-2.55.273,7.619,7.619,0,0,1-2.339-.273l-1.427-4.434h-7.623l-1.427,4.434a8.762,8.762,0,0,1-2.369.273,7.779,7.779,0,0,1-2.247-.273l6.925-21.319A14.669,14.669,0,0,1,815.68,953.033Zm-.211,4.555a22.912,22.912,0,0,1-.821,3.553l-1.791,5.5h5.375l-1.761-5.5a24.543,24.543,0,0,1-.88-3.553Z" transform="translate(-805.689 -953.033)" fill="#0c5eaa"/>
          </g>
        </g>
        <g id="Grupo_617" data-name="Grupo 617" transform="translate(42.051)">
          <g id="Grupo_616" data-name="Grupo 616">
            <path id="Caminho_1490" data-name="Caminho 1490" d="M854.328,953.033a6.576,6.576,0,0,1,.3,2,7,7,0,0,1-.3,2.065h-5.284v17.524a9.844,9.844,0,0,1-2.429.273,8.094,8.094,0,0,1-2.4-.273V957.1h-5.437a6.1,6.1,0,0,1-.3-2,6.743,6.743,0,0,1,.3-2.065Z" transform="translate(-838.476 -953.033)" fill="#0c5eaa"/>
          </g>
        </g>
        <g id="Grupo_619" data-name="Grupo 619" transform="translate(60.717)">
          <g id="Grupo_618" data-name="Grupo 618">
            <path id="Caminho_1491" data-name="Caminho 1491" d="M883.082,953.306a10.961,10.961,0,0,1,4.86,0v21.319a9.17,9.17,0,0,1-2.4.273,8.583,8.583,0,0,1-2.46-.273v-8.959h-6.832v8.959a9.856,9.856,0,0,1-2.431.273,8.439,8.439,0,0,1-2.428-.273V953.306a9.149,9.149,0,0,1,2.4-.273,9.7,9.7,0,0,1,2.46.273v8.413h6.832Z" transform="translate(-871.391 -953.033)" fill="#0c5eaa"/>
          </g>
        </g>
        <g id="Grupo_621" data-name="Grupo 621" transform="translate(81.385)">
          <g id="Grupo_620" data-name="Grupo 620">
            <path id="Caminho_1492" data-name="Caminho 1492" d="M921.139,953.033a5.7,5.7,0,0,1,.3,1.761,6.053,6.053,0,0,1-.3,1.943H912.7v5.284h6.924a5.966,5.966,0,0,1,.3,1.792,5.661,5.661,0,0,1-.3,1.883H912.7v5.5h8.746a5.42,5.42,0,0,1,.3,1.822,5.3,5.3,0,0,1-.3,1.883H907.837V953.033Z" transform="translate(-907.837 -953.033)" fill="#0c5eaa"/>
          </g>
        </g>
        <g id="Grupo_623" data-name="Grupo 623" transform="translate(98.148)">
          <g id="Grupo_622" data-name="Grupo 622">
            <path id="Caminho_1493" data-name="Caminho 1493" d="M955.253,953.033a23.016,23.016,0,0,1,3.188.273v21.319a8,8,0,0,1-2.308.273,8.478,8.478,0,0,1-2.368-.273v-6.378c0-3.552.182-7.987.395-9.626h-.183c-.363,1.3-1.609,4.616-2.64,7.105l-1.975,4.647a5.739,5.739,0,0,1-1.731.213,4.429,4.429,0,0,1-1.609-.213c-.637-1.488-1.306-2.976-1.912-4.465a68.5,68.5,0,0,1-2.734-7.287h-.183a64.478,64.478,0,0,1,.517,9.14v6.864a7.208,7.208,0,0,1-2.156.273,7.452,7.452,0,0,1-2.156-.273V953.306a18.738,18.738,0,0,1,2.975-.273,14.564,14.564,0,0,1,2.886.273l2.4,5.588a42.619,42.619,0,0,1,2.1,5.862h.153a19.906,19.906,0,0,1,1.031-3.461c1.063-2.613,2.247-5.347,3.371-7.988A14.161,14.161,0,0,1,955.253,953.033Z" transform="translate(-937.396 -953.033)" fill="#0c5eaa"/>
          </g>
        </g>
        <g id="Grupo_625" data-name="Grupo 625" transform="translate(121.606)">
          <g id="Grupo_624" data-name="Grupo 624">
            <path id="Caminho_1494" data-name="Caminho 1494" d="M988.752,953.033a13.644,13.644,0,0,1,3.067.273l6.924,21.319a9.2,9.2,0,0,1-2.55.273,7.632,7.632,0,0,1-2.34-.273l-1.427-4.434H984.8l-1.427,4.434a8.765,8.765,0,0,1-2.368.273,7.785,7.785,0,0,1-2.248-.273l6.924-21.319A14.677,14.677,0,0,1,988.752,953.033Zm-.213,4.555a22.9,22.9,0,0,1-.82,3.553l-1.791,5.5H991.3l-1.761-5.5a24.378,24.378,0,0,1-.881-3.553Z" transform="translate(-978.761 -953.033)" fill="#0c5eaa"/>
          </g>
        </g>
      </g>
    </g>
    <g id="Grupo_628" data-name="Grupo 628" transform="translate(646.062 884.687)">
      <path id="Caminho_1495" data-name="Caminho 1495" d="M683.758,933.595h-11.77a1.306,1.306,0,0,1,0-2.611h10.464V897.205H648.674v15.23a1.306,1.306,0,0,1-2.612,0V895.9a1.306,1.306,0,0,1,1.306-1.305h36.39a1.306,1.306,0,0,1,1.306,1.305v36.389A1.306,1.306,0,0,1,683.758,933.595Z" transform="translate(-646.062 -894.594)" fill="#ffb40d"/>
    </g>
    <g id="Grupo_629" data-name="Grupo 629" transform="translate(662.529 901.223)">
      <path id="Caminho_1496" data-name="Caminho 1496" d="M712.794,962.754H694.6a1.306,1.306,0,0,1,0-2.611h16.889V926.364H677.71v16.889a1.306,1.306,0,0,1-2.611,0V925.059a1.306,1.306,0,0,1,1.305-1.306h36.39a1.306,1.306,0,0,1,1.306,1.306v36.39A1.306,1.306,0,0,1,712.794,962.754Z" transform="translate(-675.099 -923.753)" fill="#005da0"/>
    </g>
    <g id="Grupo_630" data-name="Grupo 630" transform="translate(662.556 909.269)">
      <path id="Caminho_1497" data-name="Caminho 1497" d="M694.62,968.869A19.5,19.5,0,0,1,675.147,949.4V939.219a1.278,1.278,0,0,1,2.556,0V949.4a16.937,16.937,0,0,0,16.917,16.917,1.278,1.278,0,0,1,0,2.556Z" transform="translate(-675.147 -937.941)" fill="#ffb40d"/>
    </g>
    <g id="Grupo_631" data-name="Grupo 631" transform="translate(646.062 893.284)">
      <path id="Caminho_1498" data-name="Caminho 1498" d="M674.115,940.157H647.368a1.306,1.306,0,0,1-1.306-1.306V911.059a1.306,1.306,0,1,1,2.612,0v26.487h25.441a1.306,1.306,0,1,1,0,2.611Z" transform="translate(-646.062 -909.753)" fill="#005da0"/>
    </g>
    <g id="Grupo_632" data-name="Grupo 632" transform="translate(687.471 880.073)">
      <path id="Caminho_1499" data-name="Caminho 1499" d="M736.744,905.425a1.306,1.306,0,0,1-1.306-1.305,15.048,15.048,0,0,0-15.05-15.05,1.306,1.306,0,1,1,0-2.612,17.661,17.661,0,0,1,17.662,17.662A1.306,1.306,0,0,1,736.744,905.425Z" transform="translate(-719.082 -886.457)" fill="#e02f52"/>
    </g>
    <g id="Grupo_633" data-name="Grupo 633" transform="translate(687.471 887.414)">
      <path id="Caminho_1500" data-name="Caminho 1500" d="M729.4,911.029a1.306,1.306,0,0,1-1.305-1.305,7.706,7.706,0,0,0-7.709-7.708,1.306,1.306,0,0,1,0-2.612,10.32,10.32,0,0,1,10.32,10.321A1.306,1.306,0,0,1,729.4,911.029Z" transform="translate(-719.082 -899.403)" fill="#e02f52"/>
    </g>
    <g id="Grupo_634" data-name="Grupo 634" transform="translate(687.867 894.382)">
      <circle id="Elipse_50" data-name="Elipse 50" cx="2.019" cy="2.019" r="2.019" transform="translate(0)" fill="#e02f52"/>
    </g>
    <g id="Grupo_635" data-name="Grupo 635" transform="translate(687.452 871.709)">
      <circle id="Elipse_51" data-name="Elipse 51" cx="1.418" cy="1.418" r="1.418" fill="#e02f52"/>
    </g>
    <g id="Grupo_636" data-name="Grupo 636" transform="translate(693.722 872.583)">
      <circle id="Elipse_52" data-name="Elipse 52" cx="1.418" cy="1.418" r="1.418" transform="translate(0 0)" fill="#e02f52"/>
    </g>
    <g id="Grupo_637" data-name="Grupo 637" transform="translate(699.527 874.83)">
      <circle id="Elipse_53" data-name="Elipse 53" cx="1.418" cy="1.418" r="1.418" transform="translate(0)" fill="#e02f52"/>
    </g>
    <g id="Grupo_638" data-name="Grupo 638" transform="translate(704.594 878.857)">
      <circle id="Elipse_54" data-name="Elipse 54" cx="1.418" cy="1.418" r="1.418" transform="translate(0)" fill="#e02f52"/>
    </g>
    <g id="Grupo_639" data-name="Grupo 639" transform="translate(708.517 883.959)">
      <circle id="Elipse_55" data-name="Elipse 55" cx="1.418" cy="1.418" r="1.418" transform="translate(0 0)" fill="#e02f52"/>
    </g>
    <g id="Grupo_640" data-name="Grupo 640" transform="translate(710.785 889.556)">
      <circle id="Elipse_56" data-name="Elipse 56" cx="1.418" cy="1.418" r="1.418" transform="translate(0)" fill="#e02f52"/>
    </g>
    <g id="Grupo_641" data-name="Grupo 641" transform="translate(711.764 895.982)">
      <circle id="Elipse_57" data-name="Elipse 57" cx="1.418" cy="1.418" r="1.418" transform="translate(0)" fill="#e02f52"/>
    </g>
    <g id="Grupo_648" data-name="Grupo 648" transform="translate(713.044 945.039)">
      <g id="Grupo_642" data-name="Grupo 642" transform="translate(0 5.195)">
        <path id="Caminho_1501" data-name="Caminho 1501" d="M764.177,1014.2a3.957,3.957,0,0,1,4.078-4.025,3.707,3.707,0,0,1,3.812,3.759,3.932,3.932,0,0,1-4.078,4.006A3.713,3.713,0,0,1,764.177,1014.2Zm6.082-.284a2.018,2.018,0,0,0-2.057-2.217,2.285,2.285,0,0,0-2.216,2.535,2.022,2.022,0,0,0,2.057,2.2A2.269,2.269,0,0,0,770.259,1013.919Z" transform="translate(-764.177 -1010.177)" fill="#e02f52"/>
      </g>
      <g id="Grupo_643" data-name="Grupo 643" transform="translate(8.946 5.195)">
        <path id="Caminho_1502" data-name="Caminho 1502" d="M781.265,1010.336h1.755l-.3,1.419a2.846,2.846,0,0,1,2.535-1.578c1.632,0,2.66,1.33,2.287,3.4l-.407,2.34c-.053.355.035.514.336.514h.6l-.231,1.347h-.851c-1.384,0-1.862-.461-1.6-1.9l.373-2.216c.213-1.223-.248-1.915-1.295-1.915-1.135,0-1.808.62-2.038,1.915l-.728,4.114h-1.755Z" transform="translate(-779.953 -1010.177)" fill="#e02f52"/>
      </g>
      <g id="Grupo_644" data-name="Grupo 644" transform="translate(18.365)">
        <path id="Caminho_1503" data-name="Caminho 1503" d="M796.632,1011.921l1.915-10.9H800.3l-1.933,10.939c-.053.355.018.514.337.514h.727l-.23,1.347h-.975C796.845,1013.818,796.366,1013.358,796.632,1011.921Z" transform="translate(-796.562 -1001.017)" fill="#e02f52"/>
      </g>
      <g id="Grupo_645" data-name="Grupo 645" transform="translate(22.543 1.33)">
        <path id="Caminho_1504" data-name="Caminho 1504" d="M804,1012.936l.958-5.55h1.773l-.993,5.585c-.053.355.035.514.337.514h.62l-.23,1.347h-.869C804.211,1014.833,803.732,1014.373,804,1012.936Zm1.206-8.44a1.119,1.119,0,0,1,1.135-1.134,1.144,1.144,0,1,1-1.135,1.134Z" transform="translate(-803.928 -1003.362)" fill="#e02f52"/>
      </g>
      <g id="Grupo_646" data-name="Grupo 646" transform="translate(26.435 5.195)">
        <path id="Caminho_1505" data-name="Caminho 1505" d="M812.1,1010.336h1.755l-.3,1.419a2.847,2.847,0,0,1,2.536-1.578c1.632,0,2.66,1.33,2.287,3.4l-.407,2.34c-.053.355.035.514.336.514h.6l-.231,1.347h-.851c-1.384,0-1.862-.461-1.6-1.9l.373-2.216c.213-1.223-.248-1.915-1.295-1.915-1.135,0-1.808.62-2.039,1.915l-.727,4.114h-1.756Z" transform="translate(-810.792 -1010.177)" fill="#e02f52"/>
      </g>
      <g id="Grupo_647" data-name="Grupo 647" transform="translate(35.655 5.195)">
        <path id="Caminho_1506" data-name="Caminho 1506" d="M831.057,1016.489a2.887,2.887,0,0,0,2.057-.78l1.082,1.1a4.415,4.415,0,0,1-3.156,1.135,3.679,3.679,0,0,1-3.989-3.776,3.849,3.849,0,0,1,3.918-3.99c2.482,0,3.635,1.685,3.706,4.078l-5.816.62A2.066,2.066,0,0,0,831.057,1016.489Zm1.738-3.227a1.717,1.717,0,0,0-1.827-1.666,2.092,2.092,0,0,0-2.145,2.091Z" transform="translate(-827.05 -1010.177)" fill="#e02f52"/>
      </g>
    </g>
  </g>
</svg>
