<svg xmlns="http://www.w3.org/2000/svg" width="235" height="97.186" viewBox="0 0 235 97.186">
  <g id="Grupo_50" data-name="Grupo 50" transform="translate(-186.282 -295.764)">
    <g id="Grupo_17" data-name="Grupo 17" transform="translate(261.815 347.705)">
      <g id="Grupo_16" data-name="Grupo 16" transform="translate(0)">
        <g id="Grupo_9" data-name="Grupo 9">
          <path id="Caminho_1367" data-name="Caminho 1367" d="M324.654,377.088a26.077,26.077,0,0,1,3.591.307v24.011a8.991,8.991,0,0,1-2.6.309,9.549,9.549,0,0,1-2.669-.309v-7.183c0-4,.206-9,.446-10.842h-.206c-.41,1.47-1.811,5.2-2.976,8l-2.221,5.233a6.474,6.474,0,0,1-1.951.239,4.994,4.994,0,0,1-1.813-.239c-.718-1.675-1.47-3.351-2.155-5.029a77.324,77.324,0,0,1-3.078-8.207h-.2a72.78,72.78,0,0,1,.581,10.295v7.73a8.089,8.089,0,0,1-2.427.309,8.38,8.38,0,0,1-2.43-.309V377.395a21.178,21.178,0,0,1,3.351-.307,16.435,16.435,0,0,1,3.25.307l2.7,6.294a47.966,47.966,0,0,1,2.359,6.6h.172a22.521,22.521,0,0,1,1.164-3.9c1.2-2.942,2.53-6.021,3.8-9A15.993,15.993,0,0,1,324.654,377.088Z" transform="translate(-304.543 -377.088)" fill="#fff"/>
        </g>
        <g id="Grupo_10" data-name="Grupo 10" transform="translate(26.42)">
          <path id="Caminho_1368" data-name="Caminho 1368" d="M357.16,377.088a15.423,15.423,0,0,1,3.456.307l7.8,24.011a10.336,10.336,0,0,1-2.872.309,8.565,8.565,0,0,1-2.634-.309l-1.607-4.993h-8.585l-1.608,4.993a9.85,9.85,0,0,1-2.668.309,8.744,8.744,0,0,1-2.531-.309l7.8-24.011A16.555,16.555,0,0,1,357.16,377.088Zm-.238,5.129a25.811,25.811,0,0,1-.925,4l-2.018,6.191h6.054l-1.984-6.191a27.648,27.648,0,0,1-.991-4Z" transform="translate(-345.908 -377.088)" fill="#fff"/>
        </g>
        <g id="Grupo_11" data-name="Grupo 11" transform="translate(47.361)">
          <path id="Caminho_1369" data-name="Caminho 1369" d="M396.549,377.088a7.392,7.392,0,0,1,.341,2.255,7.875,7.875,0,0,1-.341,2.327H390.6v19.736a11.064,11.064,0,0,1-2.735.309,9.1,9.1,0,0,1-2.7-.309V381.67h-6.123a6.872,6.872,0,0,1-.341-2.257,7.592,7.592,0,0,1,.341-2.325Z" transform="translate(-378.695 -377.088)" fill="#fff"/>
        </g>
        <g id="Grupo_12" data-name="Grupo 12" transform="translate(68.384)">
          <path id="Caminho_1370" data-name="Caminho 1370" d="M424.777,377.395a12.369,12.369,0,0,1,5.473,0v24.011a10.308,10.308,0,0,1-2.7.309,9.639,9.639,0,0,1-2.769-.309V391.315h-7.7v10.091a11.077,11.077,0,0,1-2.737.309,9.495,9.495,0,0,1-2.735-.309V377.395a10.325,10.325,0,0,1,2.7-.307,10.94,10.94,0,0,1,2.771.307v9.476h7.7Z" transform="translate(-411.61 -377.088)" fill="#fff"/>
        </g>
        <g id="Grupo_13" data-name="Grupo 13" transform="translate(91.662)">
          <path id="Caminho_1371" data-name="Caminho 1371" d="M463.039,377.088a6.442,6.442,0,0,1,.341,1.983,6.836,6.836,0,0,1-.341,2.188H453.53v5.952h7.8a6.719,6.719,0,0,1,.342,2.018,6.383,6.383,0,0,1-.342,2.12h-7.8v6.191h9.85a6.11,6.11,0,0,1,.342,2.052,5.974,5.974,0,0,1-.342,2.121H448.057V377.088Z" transform="translate(-448.057 -377.088)" fill="#fff"/>
        </g>
        <g id="Grupo_14" data-name="Grupo 14" transform="translate(110.541)">
          <path id="Caminho_1372" data-name="Caminho 1372" d="M497.726,377.088a26.089,26.089,0,0,1,3.591.307v24.011a9,9,0,0,1-2.6.309,9.531,9.531,0,0,1-2.667-.309v-7.183c0-4,.2-9,.445-10.842h-.206c-.409,1.47-1.812,5.2-2.974,8l-2.225,5.233a6.459,6.459,0,0,1-1.949.239,4.994,4.994,0,0,1-1.813-.239c-.718-1.675-1.47-3.351-2.154-5.029a77.105,77.105,0,0,1-3.079-8.207h-.205a72.755,72.755,0,0,1,.581,10.295v7.73a8.1,8.1,0,0,1-2.428.309,8.376,8.376,0,0,1-2.428-.309V377.395a21.135,21.135,0,0,1,3.351-.307,16.43,16.43,0,0,1,3.251.307l2.7,6.294a48.055,48.055,0,0,1,2.359,6.6h.172a22.509,22.509,0,0,1,1.162-3.9c1.2-2.942,2.531-6.021,3.8-9A16,16,0,0,1,497.726,377.088Z" transform="translate(-477.615 -377.088)" fill="#fff"/>
        </g>
        <g id="Grupo_15" data-name="Grupo 15" transform="translate(136.961)">
          <path id="Caminho_1373" data-name="Caminho 1373" d="M530.233,377.088a15.4,15.4,0,0,1,3.454.307l7.8,24.011a10.348,10.348,0,0,1-2.872.309,8.579,8.579,0,0,1-2.635-.309l-1.608-4.993h-8.583l-1.608,4.993a9.852,9.852,0,0,1-2.667.309,8.752,8.752,0,0,1-2.532-.309l7.8-24.011A16.576,16.576,0,0,1,530.233,377.088Zm-.24,5.129a25.746,25.746,0,0,1-.924,4l-2.018,6.191h6.054l-1.984-6.191a27.461,27.461,0,0,1-.993-4Z" transform="translate(-518.98 -377.088)" fill="#fff"/>
        </g>
      </g>
    </g>
    <g id="Grupo_18" data-name="Grupo 18" transform="translate(186.282 310.38)">
      <path id="Caminho_1374" data-name="Caminho 1374" d="M228.738,362.574H215.482a1.471,1.471,0,0,1,0-2.942h11.785V321.589H189.223v17.154a1.471,1.471,0,0,1-2.941,0V320.119a1.471,1.471,0,0,1,1.471-1.471h40.985a1.471,1.471,0,0,1,1.47,1.471V361.1A1.471,1.471,0,0,1,228.738,362.574Z" transform="translate(-186.282 -318.648)" fill="#8bc6ee"/>
    </g>
    <g id="Grupo_19" data-name="Grupo 19" transform="translate(204.827 329.004)">
      <path id="Caminho_1375" data-name="Caminho 1375" d="M257.774,391.734H237.282a1.471,1.471,0,1,1,0-2.941H256.3V350.749H218.26V369.77a1.471,1.471,0,1,1-2.942,0V349.278a1.471,1.471,0,0,1,1.471-1.47h40.985a1.471,1.471,0,0,1,1.47,1.47v40.985A1.471,1.471,0,0,1,257.774,391.734Z" transform="translate(-215.318 -347.808)" fill="#fff"/>
    </g>
    <g id="Grupo_20" data-name="Grupo 20" transform="translate(204.859 338.066)">
      <path id="Caminho_1376" data-name="Caminho 1376" d="M237.3,396.829A21.957,21.957,0,0,1,215.367,374.9V363.436a1.44,1.44,0,1,1,2.879,0V374.9A19.075,19.075,0,0,0,237.3,393.95a1.44,1.44,0,1,1,0,2.879Z" transform="translate(-215.367 -361.996)" fill="#8bc6ee"/>
    </g>
    <g id="Grupo_21" data-name="Grupo 21" transform="translate(186.282 320.063)">
      <path id="Caminho_1377" data-name="Caminho 1377" d="M217.877,368.051H187.753a1.471,1.471,0,0,1-1.471-1.471v-31.3a1.471,1.471,0,0,1,2.941,0v29.831h28.654a1.471,1.471,0,0,1,0,2.942Z" transform="translate(-186.282 -333.808)" fill="#fff"/>
    </g>
    <g id="Grupo_22" data-name="Grupo 22" transform="translate(232.919 305.183)">
      <path id="Caminho_1378" data-name="Caminho 1378" d="M279.193,331.874a1.471,1.471,0,0,1-1.471-1.47,16.949,16.949,0,0,0-16.95-16.95,1.471,1.471,0,1,1,0-2.941A19.891,19.891,0,0,1,280.664,330.4,1.471,1.471,0,0,1,279.193,331.874Z" transform="translate(-259.301 -310.512)" fill="#fff"/>
    </g>
    <g id="Grupo_23" data-name="Grupo 23" transform="translate(232.919 313.452)">
      <path id="Caminho_1379" data-name="Caminho 1379" d="M270.925,336.551a1.47,1.47,0,0,1-1.471-1.47,8.68,8.68,0,0,0-8.682-8.682,1.471,1.471,0,1,1,0-2.941,11.621,11.621,0,0,1,11.623,11.623A1.47,1.47,0,0,1,270.925,336.551Z" transform="translate(-259.301 -323.458)" fill="#fff"/>
    </g>
    <g id="Grupo_24" data-name="Grupo 24" transform="translate(233.366 321.299)">
      <circle id="Elipse_17" data-name="Elipse 17" cx="2.274" cy="2.274" r="2.274" fill="#fff"/>
    </g>
    <g id="Grupo_25" data-name="Grupo 25" transform="translate(232.898 295.764)">
      <circle id="Elipse_18" data-name="Elipse 18" cx="1.597" cy="1.597" r="1.597" fill="#fff"/>
    </g>
    <g id="Grupo_26" data-name="Grupo 26" transform="translate(239.959 296.748)">
      <circle id="Elipse_19" data-name="Elipse 19" cx="1.597" cy="1.597" r="1.597" fill="#fff"/>
    </g>
    <g id="Grupo_27" data-name="Grupo 27" transform="translate(246.498 299.279)">
      <circle id="Elipse_20" data-name="Elipse 20" cx="1.597" cy="1.597" r="1.597" transform="translate(0 0)" fill="#fff"/>
    </g>
    <g id="Grupo_28" data-name="Grupo 28" transform="translate(252.204 303.814)">
      <circle id="Elipse_21" data-name="Elipse 21" cx="1.597" cy="1.597" r="1.597" transform="translate(0 0)" fill="#fff"/>
    </g>
    <g id="Grupo_29" data-name="Grupo 29" transform="translate(256.622 309.56)">
      <circle id="Elipse_22" data-name="Elipse 22" cx="1.597" cy="1.597" r="1.597" transform="translate(0)" fill="#fff"/>
    </g>
    <g id="Grupo_30" data-name="Grupo 30" transform="translate(259.177 315.865)">
      <circle id="Elipse_23" data-name="Elipse 23" cx="1.597" cy="1.597" r="1.597" fill="#fff"/>
    </g>
    <g id="Grupo_31" data-name="Grupo 31" transform="translate(260.279 323.102)">
      <circle id="Elipse_24" data-name="Elipse 24" cx="1.597" cy="1.597" r="1.597" transform="translate(0)" fill="#fff"/>
    </g>
    <g id="Grupo_32" data-name="Grupo 32" transform="translate(261.721 378.352)">
      <path id="Caminho_1380" data-name="Caminho 1380" d="M304.4,438.764a4.458,4.458,0,0,1,4.593-4.534,4.176,4.176,0,0,1,4.293,4.234,4.429,4.429,0,0,1-4.593,4.513A4.183,4.183,0,0,1,304.4,438.764Zm6.849-.319a2.273,2.273,0,0,0-2.317-2.5,2.573,2.573,0,0,0-2.5,2.856,2.278,2.278,0,0,0,2.316,2.476A2.555,2.555,0,0,0,311.245,438.445Z" transform="translate(-304.396 -428.38)" fill="#fff"/>
      <path id="Caminho_1381" data-name="Caminho 1381" d="M321.65,434.411h1.977l-.34,1.6a3.207,3.207,0,0,1,2.856-1.778c1.837,0,3,1.5,2.576,3.834l-.459,2.636c-.06.4.04.58.379.58h.68l-.26,1.518H328.1c-1.558,0-2.1-.519-1.8-2.137l.42-2.5c.24-1.378-.28-2.156-1.458-2.156-1.278,0-2.036.7-2.3,2.156l-.819,4.633h-1.977Z" transform="translate(-310.096 -428.38)" fill="#fff"/>
      <path id="Caminho_1382" data-name="Caminho 1382" d="M336.86,437.352l2.157-12.281h1.977l-2.177,12.32c-.06.4.02.58.38.58h.818l-.259,1.518h-1.1C337.1,439.489,336.561,438.97,336.86,437.352Z" transform="translate(-316.097 -425.071)" fill="#fff"/>
      <path id="Caminho_1383" data-name="Caminho 1383" d="M344.226,438.2l1.079-6.25h2l-1.118,6.29c-.06.4.04.58.379.58h.7L347,440.336h-.979C344.466,440.336,343.927,439.817,344.226,438.2Zm1.358-9.505a1.261,1.261,0,0,1,1.278-1.278,1.288,1.288,0,1,1-1.278,1.278Z" transform="translate(-318.758 -425.918)" fill="#fff"/>
      <path id="Caminho_1384" data-name="Caminho 1384" d="M352.49,434.411h1.977l-.34,1.6a3.207,3.207,0,0,1,2.856-1.778c1.838,0,2.995,1.5,2.576,3.834L359.1,440.7c-.059.4.04.58.379.58h.68l-.26,1.518h-.958c-1.558,0-2.1-.519-1.8-2.137l.42-2.5c.24-1.378-.28-2.156-1.458-2.156-1.278,0-2.036.7-2.3,2.156l-.819,4.633h-1.977Z" transform="translate(-321.238 -428.38)" fill="#fff"/>
      <path id="Caminho_1385" data-name="Caminho 1385" d="M371.782,441.34a3.252,3.252,0,0,0,2.317-.879l1.218,1.238a4.973,4.973,0,0,1-3.555,1.278,4.144,4.144,0,0,1-4.493-4.253,4.336,4.336,0,0,1,4.413-4.494c2.8,0,4.094,1.9,4.174,4.594l-6.55.7A2.327,2.327,0,0,0,371.782,441.34Zm1.957-3.634a1.934,1.934,0,0,0-2.057-1.877,2.356,2.356,0,0,0-2.416,2.356Z" transform="translate(-327.112 -428.38)" fill="#fff"/>
    </g>
  </g>
</svg>
