<svg xmlns="http://www.w3.org/2000/svg" width="154.485" height="38" viewBox="0 0 154.485 38">
  <g id="Grupo_347" data-name="Grupo 347" transform="translate(-1716.557 -149.747)">
    <g id="Grupo_1" data-name="Grupo 1" transform="translate(1716.557 170.299)">
      <path id="Caminho_1" data-name="Caminho 1" d="M1730.8,186.391a18.962,18.962,0,0,1,2.545.214v17.013a6.327,6.327,0,0,1-1.841.22,6.7,6.7,0,0,1-1.891-.22v-5.09c0-2.832.144-6.372.315-7.681h-.147c-.291,1.042-1.283,3.686-2.108,5.67l-1.574,3.707a4.516,4.516,0,0,1-1.381.173,3.506,3.506,0,0,1-1.286-.173c-.508-1.183-1.042-2.372-1.526-3.56a55.16,55.16,0,0,1-2.181-5.817h-.144a51.734,51.734,0,0,1,.411,7.294v5.477a5.7,5.7,0,0,1-1.72.22,5.886,5.886,0,0,1-1.72-.22V186.605a15.708,15.708,0,0,1,2.375-.214,11.783,11.783,0,0,1,2.3.214l1.914,4.462a34.232,34.232,0,0,1,1.673,4.676h.12a16.074,16.074,0,0,1,.825-2.759c.848-2.084,1.793-4.267,2.688-6.378A11.674,11.674,0,0,1,1730.8,186.391Z" transform="translate(-1716.557 -186.391)" fill="#fff"/>
      <path id="Caminho_2" data-name="Caminho 2" d="M1757.9,186.391a11.067,11.067,0,0,1,2.448.214l5.523,17.013a7.26,7.26,0,0,1-2.034.22,6.035,6.035,0,0,1-1.867-.22l-1.138-3.535h-6.082l-1.139,3.535a6.932,6.932,0,0,1-1.891.22,6.147,6.147,0,0,1-1.793-.22l5.524-17.013A11.907,11.907,0,0,1,1757.9,186.391Zm-.168,3.634a18.2,18.2,0,0,1-.655,2.833l-1.432,4.387h4.291l-1.406-4.387a19.5,19.5,0,0,1-.7-2.833Z" transform="translate(-1731.212 -186.391)" fill="#fff"/>
      <path id="Caminho_3" data-name="Caminho 3" d="M1789.031,186.391a5.225,5.225,0,0,1,.241,1.6,5.591,5.591,0,0,1-.241,1.649h-4.215v13.981a7.811,7.811,0,0,1-1.94.22,6.393,6.393,0,0,1-1.914-.22V189.638h-4.338a4.866,4.866,0,0,1-.241-1.6,5.378,5.378,0,0,1,.241-1.649Z" transform="translate(-1742.829 -186.391)" fill="#fff"/>
      <path id="Caminho_4" data-name="Caminho 4" d="M1812.267,186.605a8.879,8.879,0,0,1,3.877,0v17.013a7.242,7.242,0,0,1-1.916.22,6.78,6.78,0,0,1-1.961-.22v-7.148h-5.454v7.148a7.78,7.78,0,0,1-1.937.22,6.663,6.663,0,0,1-1.937-.22V186.605a7.409,7.409,0,0,1,1.914-.214,7.845,7.845,0,0,1,1.961.214v6.714h5.454Z" transform="translate(-1754.491 -186.391)" fill="#fff"/>
      <path id="Caminho_5" data-name="Caminho 5" d="M1842.957,186.391a4.558,4.558,0,0,1,.241,1.4,4.775,4.775,0,0,1-.241,1.55h-6.736v4.221h5.524a4.646,4.646,0,0,1,.243,1.429,4.529,4.529,0,0,1-.243,1.5h-5.524v4.383h6.978a4.32,4.32,0,0,1,.244,1.455,4.226,4.226,0,0,1-.244,1.5h-10.855V186.391Z" transform="translate(-1767.403 -186.391)" fill="#fff"/>
      <path id="Caminho_6" data-name="Caminho 6" d="M1870.441,186.391a19.023,19.023,0,0,1,2.545.214v17.013a6.338,6.338,0,0,1-1.844.22,6.7,6.7,0,0,1-1.89-.22v-5.09c0-2.832.146-6.372.317-7.681h-.147c-.291,1.042-1.286,3.686-2.108,5.67l-1.576,3.707a4.507,4.507,0,0,1-1.382.173,3.476,3.476,0,0,1-1.283-.173c-.508-1.183-1.042-2.372-1.527-3.56a54.721,54.721,0,0,1-2.181-5.817h-.146a51.319,51.319,0,0,1,.413,7.294v5.477a5.694,5.694,0,0,1-1.72.22,5.87,5.87,0,0,1-1.72-.22V186.605a15.669,15.669,0,0,1,2.374-.214,11.777,11.777,0,0,1,2.3.214l1.913,4.462a34.051,34.051,0,0,1,1.673,4.676h.121a15.549,15.549,0,0,1,.824-2.759c.846-2.084,1.79-4.267,2.689-6.378A11.625,11.625,0,0,1,1870.441,186.391Z" transform="translate(-1777.877 -186.391)" fill="#fff"/>
      <path id="Caminho_7" data-name="Caminho 7" d="M1897.536,186.391a11.059,11.059,0,0,1,2.448.214l5.524,17.013a7.267,7.267,0,0,1-2.034.22,6.011,6.011,0,0,1-1.866-.22l-1.139-3.535h-6.082l-1.139,3.535a6.935,6.935,0,0,1-1.891.22,6.144,6.144,0,0,1-1.793-.22l5.524-17.013A11.906,11.906,0,0,1,1897.536,186.391Zm-.169,3.634a18.321,18.321,0,0,1-.655,2.833l-1.429,4.387h4.288l-1.406-4.387a19.479,19.479,0,0,1-.7-2.833Z" transform="translate(-1792.532 -186.391)" fill="#fff"/>
    </g>
    <g id="Grupo_2" data-name="Grupo 2" transform="translate(1833.061 149.747)">
      <path id="Caminho_8" data-name="Caminho 8" d="M1981.763,162.843h-13.075v-13.1a14.79,14.79,0,0,1,3.208.692c.117.042.23.079.34.12h.005q.5.188.984.408h.005c.325.146.639.3.95.471h0c.309.173.61.351.909.539.1.063.2.132.3.195A14.647,14.647,0,0,1,1981.763,162.843Z" transform="translate(-1943.782 -149.747)" fill="#fff"/>
      <path id="Caminho_9" data-name="Caminho 9" d="M1958.43,175.729v13.19h-13.1a11.469,11.469,0,0,0,1.385,4.226,11.714,11.714,0,0,0,8.763,5.911,11.315,11.315,0,0,0,1.477.1h11.711V175.729Z" transform="translate(-1933.524 -161.157)" fill="#fff"/>
      <path id="Caminho_10" data-name="Caminho 10" d="M1956.363,175.72h-11.2v11.719h11.716V175.72Z" transform="translate(-1933.452 -161.153)" fill="#fff"/>
      <path id="Caminho_11" data-name="Caminho 11" d="M1946.234,154.845h-21.953v23.427h10.237V165.081h13.188V154.845Z" transform="translate(-1924.281 -151.986)" fill="#fff"/>
    </g>
  </g>
</svg>
